<svg xmlns="http://www.w3.org/2000/svg" width="200" height="200" viewBox="0 0 200 200">
  <rect width="200" height="200" fill="none"/>
  <g fill="#ffffff">
    <circle cx="10" cy="12" r="0.7" opacity="0.65"/>
    <circle cx="25" cy="40" r="0.6" opacity="0.45"/>
    <circle cx="60" cy="22" r="0.8" opacity="0.5"/>
    <circle cx="85" cy="15" r="0.5" opacity="0.4"/>
    <circle cx="120" cy="28" r="0.7" opacity="0.55"/>
    <circle cx="160" cy="18" r="0.6" opacity="0.5"/>
    <circle cx="190" cy="35" r="0.6" opacity="0.4"/>
    <circle cx="15" cy="75" r="0.8" opacity="0.5"/>
    <circle cx="45" cy="95" r="0.5" opacity="0.45"/>
    <circle cx="70" cy="80" r="0.6" opacity="0.6"/>
    <circle cx="100" cy="70" r="0.7" opacity="0.55"/>
    <circle cx="130" cy="90" r="0.6" opacity="0.5"/>
    <circle cx="165" cy="75" r="0.5" opacity="0.4"/>
    <circle cx="185" cy="95" r="0.7" opacity="0.6"/>
    <circle cx="20" cy="125" r="0.6" opacity="0.45"/>
    <circle cx="35" cy="150" r="0.7" opacity="0.55"/>
    <circle cx="60" cy="130" r="0.5" opacity="0.4"/>
    <circle cx="90" cy="145" r="0.8" opacity="0.6"/>
    <circle cx="115" cy="120" r="0.6" opacity="0.5"/>
    <circle cx="145" cy="140" r="0.5" opacity="0.45"/>
    <circle cx="170" cy="125" r="0.7" opacity="0.55"/>
    <circle cx="195" cy="150" r="0.6" opacity="0.5"/>
    <circle cx="12" cy="180" r="0.6" opacity="0.45"/>
    <circle cx="40" cy="175" r="0.7" opacity="0.55"/>
    <circle cx="65" cy="165" r="0.5" opacity="0.4"/>
    <circle cx="95" cy="182" r="0.7" opacity="0.6"/>
    <circle cx="120" cy="170" r="0.6" opacity="0.5"/>
    <circle cx="150" cy="185" r="0.6" opacity="0.45"/>
    <circle cx="178" cy="170" r="0.5" opacity="0.4"/>
  </g>
</svg>